<?xml version="1.0" encoding="utf-8"?>
<!-- Generator: Adobe Illustrator 23.0.0, SVG Export Plug-In . SVG Version: 6.00 Build 0)  -->
<svg version="1.1" id="레이어_1" xmlns="http://www.w3.org/2000/svg" xmlns:xlink="http://www.w3.org/1999/xlink" x="0px"
	 y="0px" viewBox="0 0 99.98 112.42" style="enable-background:new 0 0 99.98 112.42;" xml:space="preserve">
<style type="text/css">
	.st0{fill:#FFFFFF;}
	.st1{fill:#262626;}
</style>
<g>
	<g>
		<path class="st0" d="M50.46,5.22c0,0-15.35,15.18-43.16,16.01c0,0-5.71,57.57,43.14,84.92c0,0,46.86-21.57,42.97-85.03
			C93.41,21.11,71.49,22.35,50.46,5.22z"/>
		<path d="M50.17,10.56c0,0-13.83,13.68-38.88,14.42c0,0-5.15,51.86,38.86,76.51c0,0,42.21-19.43,38.71-76.61
			C88.86,24.88,69.11,26,50.17,10.56z"/>
		<path class="st1" d="M88.86,24.88L24.73,78.05c0,0,8.68,14.17,25.14,23.46C49.86,101.51,91.6,82.77,88.86,24.88z"/>
		<path d="M91.78,22.8c3.78,61.65-41.74,82.61-41.74,82.61C2.58,78.83,8.13,22.9,8.13,22.9C35.15,22.1,50.06,7.35,50.06,7.35
			C70.48,24,91.78,22.8,91.78,22.8z M50.27,1.86c0,0-16.53,16.35-46.48,17.24c0,0-6.15,62,46.46,91.46c0,0,50.47-23.23,46.28-91.58
			C96.53,18.97,72.92,20.31,50.27,1.86z"/>
	</g>
	<g>
		<path class="st0" d="M50.05,74.21c-3.73,0-6.6-0.94-8.6-2.83c-2-1.88-3-4.63-3-8.22c0-2.5,0.31-4.48,0.92-5.95
			c0.62-1.47,1.59-2.57,2.92-3.3v-0.1c-1.2-0.73-2.06-1.65-2.58-2.75c-0.52-1.1-0.77-2.67-0.77-4.7c0-3.33,0.97-5.94,2.92-7.83
			c1.95-1.88,4.67-2.83,8.17-2.83c3.57,0,6.3,0.92,8.2,2.78c1.9,1.85,2.85,4.47,2.85,7.88c0,2.07-0.24,3.64-0.72,4.72
			c-0.48,1.08-1.31,1.99-2.47,2.72v0.1c1.3,0.8,2.24,1.92,2.82,3.38s0.88,3.41,0.88,5.88c0,3.63-0.98,6.38-2.95,8.25
			C56.68,73.28,53.82,74.21,50.05,74.21z M50.05,58.66c-1.37,0-2.05,1.43-2.05,4.3c0,1.3,0.16,2.25,0.47,2.85
			c0.32,0.6,0.84,0.9,1.58,0.9c0.7,0,1.21-0.3,1.53-0.9c0.32-0.6,0.47-1.55,0.47-2.85C52.05,60.09,51.38,58.66,50.05,58.66z
			 M50.05,43.21c-0.6,0-1.08,0.28-1.45,0.85c-0.37,0.57-0.55,1.35-0.55,2.35s0.18,1.8,0.55,2.4c0.37,0.6,0.85,0.9,1.45,0.9
			c0.57,0,1.03-0.3,1.4-0.9c0.37-0.6,0.55-1.4,0.55-2.4s-0.17-1.78-0.53-2.35C51.13,43.49,50.65,43.21,50.05,43.21z"/>
	</g>
</g>
</svg>
